Coordinates
version=1
nRows=5
nColumns=40
inDegrees=yes

Units are S.I. units (second, meters, Newtons, ...)
Angles are in degrees.

endheader
time	pelvis_tilt	pelvis_list	pelvis_rotation	pelvis_tx	pelvis_ty	pelvis_tz	hip_flexion_r	hip_adduction_r	hip_rotation_r	knee_angle_r	knee_angle_r_beta	ankle_angle_r	subtalar_angle_r	mtp_angle_r	hip_flexion_l	hip_adduction_l	hip_rotation_l	knee_angle_l	knee_angle_l_beta	ankle_angle_l	subtalar_angle_l	mtp_angle_l	lumbar_extension	lumbar_bending	lumbar_rotation	arm_flex_r	arm_add_r	arm_rot_r	elbow_flex_r	pro_sup_r	wrist_flex_r	wrist_dev_r	arm_flex_l	arm_add_l	arm_rot_l	elbow_flex_l	pro_sup_l	wrist_flex_l	wrist_dev_l
     11.10250000	     -3.75600542	     -4.35089315	      3.65307379	      1.02647976	      0.92518135	      0.47720094	      2.10898443	     -1.14153663	    -16.30277801	     24.51373275	     24.51373275	     17.48254778	      2.28800053	     -5.33682348	     24.05512193	     -5.00761421	     -0.29143418	     26.76680187	     26.76680187	      9.40837669	    -15.32961964	      6.41497422	     -8.27965762	      3.97764856	      3.66186118	     27.02450076	    -16.21590048	     -8.69830628	     56.70394170	     45.15831603	      0.00000000	      0.00000000	      0.59914974	     -8.74548253	      0.95733380	     30.68759087	     44.69201794	      0.00000000	      0.00000000
     11.11600000	     -3.76219202	     -4.20092846	      3.31100634	      1.02672769	      0.92581436	      0.47406182	      3.19117246	     -2.01880112	    -15.81767741	     27.17966642	     27.17966642	     16.85797321	      1.72683161	     -6.44452707	     23.45215039	     -4.81161126	     -0.87445055	     26.56681660	     26.56681660	      9.77919092	    -15.09999060	      6.25412085	     -8.29817083	      3.86509637	      3.71293092	     25.59490147	    -16.43685957	     -8.28107440	     54.92658487	     45.20218570	      0.00000000	      0.00000000	      1.35354985	     -8.89899589	      0.93652215	     31.37461436	     44.71912037	      0.00000000	      0.00000000
     11.12950000	     -3.76949951	     -4.09625422	      2.94494236	      1.02683980	      0.92638841	      0.47101921	      4.44377613	     -2.85429852	    -15.23183304	     30.05910570	     30.05910570	     15.96381822	      1.00533854	     -7.74542346	     22.85124612	     -4.66099791	     -1.43332553	     26.34507949	     26.34507949	     10.10026258	    -14.85758187	      6.04729876	     -8.35370539	      3.83060370	      3.69652009	     24.16521987	    -16.59039473	     -7.80603407	     53.01480353	     45.24806910	      0.00000000	      0.00000000	      2.09078920	     -9.07949297	      0.93569932	     32.17385807	     44.74287923	      0.00000000	      0.00000000
     11.14300000	     -3.74008226	     -4.06144776	      2.61897987	      1.02679908	      0.92686798	      0.46807441	      5.64963144	     -3.48137975	    -14.37772302	     32.59649845	     32.59649845	     13.04348219	     -1.05473387	    -13.96953258	     22.24132429	     -4.59206579	     -2.00376011	     26.12593579	     26.12593579	     10.22702929	    -14.65037519	      5.27625996	     -8.36670108	      3.87061083	      2.68473070	     24.55509829	    -16.21788902	     -5.47481342	     47.54509493	     45.37389779	      0.00000000	      0.00000000	      1.71591812	     -9.77849978	      1.55172934	     34.66321139	     44.75881806	      0.00000000	      0.00000000
     11.15650000	     -3.65325114	     -3.90026340	      2.27342701	      1.02657871	      0.92736266	      0.46515132	      7.18993210	     -4.39905570	    -13.64245817	     36.03635088	     36.03635088	     11.90392560	     -1.81671719	    -14.59083008	     21.56010757	     -4.36529869	     -2.53406025	     25.90445778	     25.90445778	     10.54857997	    -14.46047963	      5.11032306	     -8.59272361	      3.79780668	      2.61257849	     22.92486312	    -16.27459275	     -5.27214704	     46.47976846	     45.39680284	      0.00000000	      0.00000000	      2.63201971	    -10.01689706	      1.44673179	     35.35317897	     44.79628059	      0.00000000	      0.00000000
